<svg width="40" height="40" viewBox="0 0 40 40" xmlns="http://www.w3.org/2000/svg">
  <g clip-path="url(#clip0)">
    <path d="M33.75 40C30.3037 40 27.5 37.1963 27.5 33.75C27.5 32.8884 26.7991 32.1875 25.9375 32.1875C25.0759 32.1875 24.375 32.8884 24.375 33.75C24.375 37.1963 21.5713 40 18.125 40C14.6788 40 11.875 37.1963 11.875 33.75C11.875 32.8884 11.1741 32.1875 10.3125 32.1875C9.45094 32.1875 8.75 32.8884 8.75 33.75C8.75 37.1963 5.94625 40 2.5 40H1.5625C0.699531 40 0 39.3005 0 38.4375C0 37.5745 0.699531 36.875 1.5625 36.875H2.5C4.22312 36.875 5.625 35.4731 5.625 33.75C5.625 31.1653 7.72781 29.0625 10.3125 29.0625C12.8972 29.0625 15 31.1653 15 33.75C15 35.4731 16.4019 36.875 18.125 36.875C19.8481 36.875 21.25 35.4731 21.25 33.75C21.25 31.1653 23.3528 29.0625 25.9375 29.0625C28.5222 29.0625 30.625 31.1653 30.625 33.75C30.625 35.4731 32.0269 36.875 33.75 36.875C35.4731 36.875 36.875 35.4731 36.875 33.75V7.8125C36.875 5.22781 34.7722 3.125 32.1875 3.125H16.5625C13.9778 3.125 11.875 5.22781 11.875 7.8125V24.375C11.875 25.238 11.1755 25.9375 10.3125 25.9375C9.44953 25.9375 8.75 25.238 8.75 24.375V7.8125C8.75 3.50469 12.2546 0 16.5625 0H32.1875C36.4954 0 40 3.50469 40 7.8125V33.75C40 37.1963 37.1963 40 33.75 40Z" 
          fill="currentColor" 
          stroke="currentColor" 
          stroke-width="2"/>
    <path d="M32.2656 18.4375H23.5938C22.7308 18.4375 22.0312 17.738 22.0312 16.875C22.0312 16.012 22.7308 15.3125 23.5938 15.3125H32.2656C33.1286 15.3125 33.8281 16.012 33.8281 16.875C33.8281 17.738 33.1286 18.4375 32.2656 18.4375ZM15.0781 16.7188C15.0781 17.7974 15.9526 18.6719 17.0312 18.6719C18.1099 18.6719 18.9844 17.7974 18.9844 16.7188C18.9844 15.6401 18.1099 14.7656 17.0312 14.7656C15.9526 14.7656 15.0781 15.6401 15.0781 16.7188ZM33.8281 10.625C33.8281 9.76203 33.1286 9.0625 32.2656 9.0625H23.5938C22.7308 9.0625 22.0312 9.76203 22.0312 10.625C22.0312 11.488 22.7308 12.1875 23.5938 12.1875H32.2656C33.1286 12.1875 33.8281 11.488 33.8281 10.625ZM15.0781 10.4688C15.0781 11.5474 15.9526 12.4219 17.0312 12.4219C18.1099 12.4219 18.9844 11.5474 18.9844 10.4688C18.9844 9.39008 18.1099 8.51562 17.0312 8.51562C15.9526 8.51562 15.0781 9.39008 15.0781 10.4688ZM33.8281 23.125C33.8281 22.262 33.1286 21.5625 32.2656 21.5625H23.5938C22.7308 21.5625 22.0312 22.262 22.0312 23.125C22.0312 23.988 22.7308 24.6875 23.5938 24.6875H32.2656C33.1286 24.6875 33.8281 23.988 33.8281 23.125ZM15.0781 22.9688C15.0781 24.0474 15.9526 24.9219 17.0312 24.9219C18.1099 24.9219 18.9844 24.0474 18.9844 22.9688C18.9844 21.8901 18.1099 21.0156 17.0312 21.0156C15.9526 21.0156 15.0781 21.8901 15.0781 22.9688Z" fill="#54575F"/>
  </g>
  <defs>
    <clipPath id="clip0">
      <rect width="40" height="40" fill="white"/>
    </clipPath>
  </defs>
</svg>
