<svg width="40" height="40" viewBox="0 0 40 40" fill="none" xmlns="http://www.w3.org/2000/svg">
<g clip-path="url(#clip0_1_666)">
<path d="M6.25 32.5V16.875C6.25 15.1491 7.64914 13.75 9.375 13.75H4.6875C2.96164 13.75 1.5625 15.1491 1.5625 16.875V32.5C1.5625 34.2259 2.96164 35.625 4.6875 35.625H9.375C7.64914 35.625 6.25 34.2259 6.25 32.5Z" fill="#D8D7DC"/>
<path fill-rule="evenodd" clip-rule="evenodd" d="M4.6875 15.625C3.99717 15.625 3.4375 16.1847 3.4375 16.875V32.5C3.4375 33.1903 3.99717 33.75 4.6875 33.75H29.0625C29.7528 33.75 30.3125 33.1903 30.3125 32.5V16.875C30.3125 16.1847 29.7528 15.625 29.0625 15.625H4.6875ZM-0.3125 16.875C-0.3125 14.1136 1.92611 11.875 4.6875 11.875H29.0625C31.8239 11.875 34.0625 14.1136 34.0625 16.875V32.5C34.0625 35.2614 31.8239 37.5 29.0625 37.5H4.6875C1.92611 37.5 -0.3125 35.2614 -0.3125 32.5V16.875Z" fill="#B7B5BE"/>
<path fill-rule="evenodd" clip-rule="evenodd" d="M10.9375 6.25C10.2472 6.25 9.6875 6.80967 9.6875 7.5C9.6875 8.53553 8.84803 9.375 7.8125 9.375C6.77697 9.375 5.9375 8.53553 5.9375 7.5C5.9375 4.73861 8.17611 2.5 10.9375 2.5H35.3125C38.0739 2.5 40.3125 4.73861 40.3125 7.5V23.125C40.3125 25.8864 38.0739 28.125 35.3125 28.125H32.1875C31.152 28.125 30.3125 27.2855 30.3125 26.25C30.3125 25.2145 31.152 24.375 32.1875 24.375H35.3125C36.0028 24.375 36.5625 23.8153 36.5625 23.125V7.5C36.5625 6.80967 36.0028 6.25 35.3125 6.25H10.9375ZM5.9375 20C5.9375 18.9645 6.77697 18.125 7.8125 18.125H32.1875C33.223 18.125 34.0625 18.9645 34.0625 20C34.0625 21.0355 33.223 21.875 32.1875 21.875H7.8125C6.77697 21.875 5.9375 21.0355 5.9375 20Z" fill="#B7B5BE"/>
<path fill-rule="evenodd" clip-rule="evenodd" d="M17.8125 29.375C17.8125 28.3395 18.652 27.5 19.6875 27.5H25.9375C26.973 27.5 27.8125 28.3395 27.8125 29.375C27.8125 30.4105 26.973 31.25 25.9375 31.25H19.6875C18.652 31.25 17.8125 30.4105 17.8125 29.375Z" fill="#54575F"/>
</g>
<defs>
<clipPath id="clip0_1_666">
<rect width="40" height="40" fill="white"/>
</clipPath>
</defs>
</svg>
