<svg width="40" height="40" viewBox="0 0 40 40" xmlns="http://www.w3.org/2000/svg">
  <g clip-path="url(#clip0)">
    <path d="M32.1875 32.5C32.1875 34.2259 30.7884 35.625 29.0625 35.625H4.6875C2.96164 35.625 1.5625 34.2259 1.5625 32.5V16.875C1.5625 15.1491 2.96164 13.75 4.6875 13.75H29.0625C30.7884 13.75 32.1875 15.1491 32.1875 16.875V32.5Z" 
          fill="none" 
          stroke="currentColor" 
          stroke-width="3.75" 
          stroke-miterlimit="10" 
          stroke-linecap="round" 
          stroke-linejoin="round"/>
          
    <path d="M7.8125 7.5C7.8125 5.77414 9.21164 4.375 10.9375 4.375H35.3125C37.0384 4.375 38.4375 5.77414 38.4375 7.5V23.125C38.4375 24.8509 37.0384 26.25 35.3125 26.25H32.1875M7.8125 20H32.1875" 
          fill="none" 
          stroke="currentColor" 
          stroke-width="3.75" 
          stroke-miterlimit="10" 
          stroke-linecap="round" 
          stroke-linejoin="round"/>
    
    <path d="M19.6875 29.375H25.9375" 
          fill="none" 
          stroke="#54575F" 
          stroke-width="3.75" 
          stroke-miterlimit="10" 
          stroke-linecap="round" 
          stroke-linejoin="round"/>
  </g>
  <defs>
    <clipPath id="clip0">
      <rect width="40" height="40" fill="white"/>
    </clipPath>
  </defs>
</svg>
