<svg width="40" height="40" viewBox="0 0 40 40" fill="none" xmlns="http://www.w3.org/2000/svg">
<g clip-path="url(#clip0_1_642)">
<path d="M9.43153 19.2307C10.0682 18.4091 10.4137 17.3991 10.4136 16.3597C10.4136 10.0871 14.1192 5.75181 17.5933 3.32779C17.5986 2.87029 17.5992 2.41271 17.5998 1.9552C10.7299 3.34248 5.92555 8.37051 5.92555 16.3597C4.42655 18.2943 3.12559 20.1646 2.28957 21.7644C1.39112 23.4837 2.65028 25.5416 4.58842 25.5467C5.23359 25.5484 5.77328 26.0357 5.8282 26.6785L6.16563 30.6261C6.36196 32.9231 8.2837 34.6875 10.589 34.6875H13.0747C13.0277 34.2239 12.9811 33.7602 12.9334 33.2968C11.6486 32.9028 10.7037 31.7241 10.666 30.3125L10.2993 26.2791C10.2993 23.5937 7.87995 22.5058 7.83534 22.4672C7.45564 22.1388 6.95204 22.1093 7.66994 21.1718C8.08471 20.6298 8.9448 19.8588 9.43153 19.2307Z" fill="#D8D7DC"/>
<path d="M15.041 40C14.178 40 13.4784 39.3005 13.4784 38.4375V37.8125C13.4784 36.9509 12.7775 36.25 11.9159 36.25H10.589C9.08534 36.2514 7.63623 35.687 6.52961 34.6691C5.41928 33.6496 4.73716 32.261 4.60872 30.7591L4.29583 27.0988C1.37189 26.9403 -0.501961 23.625 0.904775 21.0407C1.66635 19.5835 2.80206 17.8717 4.37005 15.819C4.51161 8.20088 9.1694 2.34229 16.5554 0.591022C18.5897 0.181955 19.2867 3.05925 17.2932 3.6277C11.0618 5.14162 7.48798 9.78222 7.48798 16.3596C7.48798 16.7061 7.37282 17.0428 7.16063 17.3166C5.56303 19.3787 4.39005 21.1186 3.67442 22.4881C3.4366 22.9431 3.61887 23.3355 3.70824 23.4831C3.7995 23.6338 4.06864 23.9842 4.59552 23.9842C6.06101 23.9842 7.26016 25.0853 7.38501 26.5454L7.72243 30.4929C7.85064 31.9933 9.08299 33.1248 10.5889 33.1248H11.9158C14.5006 33.1248 16.6034 35.2277 16.6034 37.8124V38.4374C16.6035 39.3005 15.9039 40 15.041 40ZM38.9501 14.1238C39.2427 13.3119 38.8218 12.4166 38.0101 12.124C37.1984 11.8314 36.3028 12.2523 36.0102 13.0641C33.0685 20.8073 21.7448 18.8437 21.6035 10.5469C21.5324 5.24647 27.3098 1.47306 32.1226 3.84153C32.9067 4.20208 33.8345 3.85879 34.1951 3.0748C34.5557 2.29081 34.2125 1.36291 33.4285 1.00236C31.9825 0.337191 30.5011 0 29.0255 0C15.0323 0.579616 15.0388 20.5175 29.0255 21.094C33.4589 21.094 37.4473 18.2929 38.9501 14.1238ZM34.4943 38.4375V28.7499C34.4943 27.5021 34.7265 26.4198 35.247 25.2407C35.5956 24.4512 35.2381 23.5287 34.4486 23.1802C33.6591 22.8318 32.7367 23.1892 32.3881 23.9786C31.693 25.5532 31.3693 27.0693 31.3693 28.7498V38.4374C31.3693 39.3004 32.0688 39.9999 32.9318 39.9999C33.7948 39.9999 34.4943 39.3005 34.4943 38.4375Z" fill="#00D9C5"/>
<path d="M30.2 13.7502C29.1314 13.7502 28.128 13.329 27.3746 12.5643L25.1733 10.3107C24.5703 9.69332 24.5819 8.70409 25.1993 8.10104C25.8167 7.49814 26.8059 7.50978 27.4088 8.12705L29.6054 10.3759C29.7621 10.535 29.9749 10.6251 30.1999 10.6251C30.4249 10.6251 30.6377 10.535 30.7991 10.3711L36.8999 4.21286C37.507 3.59981 38.4964 3.59512 39.1095 4.20247C39.7227 4.80982 39.7273 5.79913 39.1199 6.41219L33.0222 12.5673C32.272 13.329 31.2686 13.7502 30.2 13.7502Z" fill="#54575F"/>
</g>
<defs>
<clipPath id="clip0_1_642">
<rect width="40" height="40" fill="white"/>
</clipPath>
</defs>
</svg>
