<svg width="40" height="40" viewBox="0 0 40 40" xmlns="http://www.w3.org/2000/svg">
  <g clip-path="url(#clip0)">
    <path d="M38.4375 4.6875V35.3125C38.4375 37.0384 37.0384 38.4375 35.3125 38.4375H4.6875C2.96164 38.4375 1.5625 37.0384 1.5625 35.3125V4.6875C1.5625 2.96164 2.96164 1.5625 4.6875 1.5625H35.3125C37.0384 1.5625 38.4375 2.96164 38.4375 4.6875Z"
          fill="none"
          stroke="currentColor"
          stroke-width="3.75"
          stroke-miterlimit="10"
          stroke-linecap="round"
          stroke-linejoin="round"/>

    <path d="M26.5625 29.375H32.1875" 
          fill="none"
          stroke="#54575F" 
          stroke-width="3.75" 
          stroke-miterlimit="10" 
          stroke-linecap="round" 
          stroke-linejoin="round"/>
          
    <path d="M25.4167 23.125H32.1875" 
          fill="none"
          stroke="#54575F" 
          stroke-width="3.75" 
          stroke-miterlimit="10" 
          stroke-linecap="round" 
          stroke-linejoin="round"/>
          
    <path d="M17.1875 32.5H10.9375C9.21164 32.5 7.8125 31.1009 7.8125 29.375C7.8125 25.9232 10.6107 23.125 14.0625 23.125C17.5143 23.125 20.3125 25.9232 20.3125 29.375C20.3125 31.1009 18.9134 32.5 17.1875 32.5Z" 
          fill="none"
          stroke="#54575F" 
          stroke-width="3.75" 
          stroke-miterlimit="10" 
          stroke-linecap="round" 
          stroke-linejoin="round"/>

    <path d="M14.0625 20C15.7884 20 17.1875 18.6009 17.1875 16.875C17.1875 15.1491 15.7884 13.75 14.0625 13.75C12.3366 13.75 10.9375 15.1491 10.9375 16.875C10.9375 18.6009 12.3366 20 14.0625 20Z" 
          fill="none"
          stroke="#54575F" 
          stroke-width="3.75" 
          stroke-miterlimit="10" 
          stroke-linecap="round" 
          stroke-linejoin="round"/>
  </g>
  <defs>
    <clipPath id="clip0">
      <rect width="40" height="40" fill="white"/>
    </clipPath>
  </defs>
</svg>
