<svg width="41" height="41" viewBox="0 0 41 41" fill="none" xmlns="http://www.w3.org/2000/svg">
<path d="M6.5625 35.625V7.8125H1.875V35.625C1.875 37.3509 3.27414 38.75 5 38.75H9.6875C7.96164 38.75 6.5625 37.3509 6.5625 35.625Z" fill="#D8D7DC"/>
<path fill-rule="evenodd" clip-rule="evenodd" d="M5 0C2.23861 0 0 2.23861 0 5V35.625C0 38.3864 2.23861 40.625 5 40.625H35.625C38.3864 40.625 40.625 38.3864 40.625 35.625V24.4792C40.625 23.4436 39.7855 22.6042 38.75 22.6042C37.7145 22.6042 36.875 23.4436 36.875 24.4792V35.625C36.875 36.3153 36.3153 36.875 35.625 36.875H5C4.30967 36.875 3.75 36.3153 3.75 35.625V9.6875H14.0625C14.6234 9.6875 15.1407 9.84979 15.5768 10.1293L23.0247 14.9029C24.0466 15.5579 25.2631 15.9375 26.5625 15.9375H38.75C39.7855 15.9375 40.625 15.098 40.625 14.0625V5C40.625 2.23861 38.3864 0 35.625 0H5ZM5 3.75C4.30967 3.75 3.75 4.30967 3.75 5V5.9375H14.0625C15.3619 5.9375 16.5784 6.31711 17.6002 6.97199L25.0483 11.7457C25.4843 12.0252 26.0016 12.1875 26.5625 12.1875H36.875V5C36.875 4.30967 36.3153 3.75 35.625 3.75H5Z" fill="#B7B5BE"/>
<path fill-rule="evenodd" clip-rule="evenodd" d="M25.7292 21.5625C24.6936 21.5625 23.8542 22.402 23.8542 23.4375C23.8542 24.473 24.6936 25.3125 25.7292 25.3125H32.5C33.5355 25.3125 34.375 24.473 34.375 23.4375C34.375 22.402 33.5355 21.5625 32.5 21.5625H25.7292ZM26.875 27.8125C25.8395 27.8125 25 28.652 25 29.6875C25 30.723 25.8395 31.5625 26.875 31.5625H32.5C33.5355 31.5625 34.375 30.723 34.375 29.6875C34.375 28.652 33.5355 27.8125 32.5 27.8125H26.875Z" fill="#B7B5BE"/>
<path fill-rule="evenodd" clip-rule="evenodd" d="M14.375 25.3125C11.9587 25.3125 10 27.2712 10 29.6875C10 30.3778 10.5597 30.9375 11.25 30.9375H17.5C18.1903 30.9375 18.75 30.3778 18.75 29.6875C18.75 27.2712 16.7913 25.3125 14.375 25.3125ZM6.25 29.6875C6.25 25.2002 9.88767 21.5625 14.375 21.5625C18.8623 21.5625 22.5 25.2002 22.5 29.6875C22.5 32.4489 20.2614 34.6875 17.5 34.6875H11.25C8.48861 34.6875 6.25 32.4489 6.25 29.6875Z" fill="#54575F"/>
<path fill-rule="evenodd" clip-rule="evenodd" d="M14.375 15.9375C13.6846 15.9375 13.125 16.4971 13.125 17.1875C13.125 17.8779 13.6846 18.4375 14.375 18.4375C15.0654 18.4375 15.625 17.8779 15.625 17.1875C15.625 16.4971 15.0654 15.9375 14.375 15.9375ZM9.375 17.1875C9.375 14.4261 11.6136 12.1875 14.375 12.1875C17.1364 12.1875 19.375 14.4261 19.375 17.1875C19.375 19.9489 17.1364 22.1875 14.375 22.1875C11.6136 22.1875 9.375 19.9489 9.375 17.1875Z" fill="#54575F"/>
</svg>
